<svg width="917" height="1253" viewBox="0 0 917 1253" fill="none" xmlns="http://www.w3.org/2000/svg" style="opacity: 0.4">
<g>
<path d="M788.628 1065.9L566.328 783.098C408.428 724.098 466.328 481.098 466.328 481.098C462.728 573.298 514.228 636.598 514.228 636.598L632.328 684.398C632.328 684.398 682.728 776.498 693.628 833.398C712.928 842.998 776.128 835.098 776.128 835.098L720.128 745.298L836.228 810.698L915.428 717.398L758.628 413.498C748.628 376.498 759.028 333.098 759.028 333.098C746.128 327.098 546.628 187.698 546.628 187.698C658.528 93.298 578.528 1.49805 578.528 1.49805C517.828 68.098 450.228 138.698 441.428 147.898C331.528 147.898 -185.172 403.698 71.0282 1093.4C152.728 1142.7 255.128 1188.7 325.528 1218.2L408.528 1251.5L530.928 1201.4C611.628 1166.1 715.528 1116.5 788.628 1065.9ZM827.528 708.098L865.528 722.798L814.028 726.698L795.728 682.398L827.528 708.098ZM677.328 385.098L702.028 414.498C702.028 414.498 667.928 424.498 654.728 413.698C641.528 402.898 624.328 349.798 624.328 349.798L677.328 385.098Z" stroke="white" stroke-miterlimit="10"/>
</g>
</svg>
